<svg width="663" height="411" viewBox="0 0 663 411" fill="none" xmlns="http://www.w3.org/2000/svg">
<mask id="mask0_262_5280" style="mask-type:luminance" maskUnits="userSpaceOnUse" x="0" y="0" width="663" height="411">
<path d="M663 0.786133H0V410.688H663V0.786133Z" fill="white"/>
</mask>
<g mask="url(#mask0_262_5280)">
<path d="M434.576 28.0402C440.455 28.0402 445.238 23.2566 445.238 17.3806C445.238 11.5024 440.455 6.72095 434.576 6.72095C428.696 6.72095 423.913 11.5024 423.913 17.3806C423.913 23.2566 428.696 28.0402 434.576 28.0402ZM434.576 11.0816C438.05 11.0816 440.876 13.9073 440.876 17.3806C440.876 20.8538 438.05 23.6795 434.576 23.6795C431.101 23.6795 428.275 20.8538 428.275 17.3806C428.275 13.9073 431.101 11.0816 434.576 11.0816Z" fill="#5A7DAC"/>
<path d="M461.231 33.3711C455.351 33.3711 450.568 38.1526 450.568 44.0285C450.568 49.9089 455.351 54.6904 461.231 54.6904C467.111 54.6904 471.893 49.9089 471.893 44.0285C471.893 38.1526 467.111 33.3711 461.231 33.3711ZM461.231 50.3297C457.757 50.3297 454.93 47.504 454.93 44.0285C454.93 40.5575 457.757 37.7318 461.231 37.7318C464.705 37.7318 467.532 40.5575 467.532 44.0285C467.532 47.504 464.705 50.3297 461.231 50.3297Z" fill="#0F6AE4"/>
<path d="M464.888 10.6411L426.644 48.8754L429.727 51.9584L467.972 13.7241L464.888 10.6411Z" fill="#0F6AE4"/>
<path d="M375.119 173.1V332.117C375.119 334.489 373.164 336.415 370.757 336.415H292.244C289.836 336.415 287.882 334.489 287.882 332.117V173.1C287.882 170.728 289.836 168.802 292.244 168.802H370.757C373.164 168.802 375.119 170.728 375.119 173.1Z" fill="url(#paint0_linear_262_5280)"/>
<path d="M265.28 253.088V334.222C265.28 335.433 263.326 336.415 260.918 336.415H182.405C179.998 336.415 178.043 335.433 178.043 334.222V253.088C178.043 251.877 179.998 250.895 182.405 250.895H260.918C263.326 250.895 265.28 251.877 265.28 253.088Z" fill="url(#paint1_linear_262_5280)"/>
<path d="M493.433 81.6103V331.861C493.433 334.242 491.479 336.176 489.071 336.176H410.558C408.151 336.176 406.196 334.242 406.196 331.861V81.6103C406.196 79.2291 408.151 77.2957 410.558 77.2957H489.071C491.479 77.2957 493.433 79.2291 493.433 81.6103Z" fill="url(#paint2_linear_262_5280)"/>
</g>
<defs>
<linearGradient id="paint0_linear_262_5280" x1="331.5" y1="331.896" x2="332.055" y2="173.848" gradientUnits="userSpaceOnUse">
<stop stop-color="#EBF1FA"/>
<stop offset="0.5" stop-color="#E2EBF6"/>
<stop offset="1" stop-color="#D9E4F2"/>
</linearGradient>
<linearGradient id="paint1_linear_262_5280" x1="221.662" y1="334.109" x2="221.806" y2="253.468" gradientUnits="userSpaceOnUse">
<stop stop-color="#EBF1FA"/>
<stop offset="0.5" stop-color="#E2EBF6"/>
<stop offset="1" stop-color="#D9E4F2"/>
</linearGradient>
<linearGradient id="paint2_linear_262_5280" x1="448.5" y1="494.221" x2="450.358" y2="127.665" gradientUnits="userSpaceOnUse">
<stop stop-color="#EBF1FA"/>
<stop offset="0.5" stop-color="#E2EBF6"/>
<stop offset="1" stop-color="#0061FE"/>
</linearGradient>
</defs>
</svg>
